<svg id="Layer_1" data-name="Layer 1" xmlns="http://www.w3.org/2000/svg" viewBox="0 0 526.66 151.07"><defs><style>.cls-1{font-size:129.59px;font-family:Gadugi;font-weight:700;}.cls-1,.cls-2{fill:#fff;}</style></defs><title>Untitled-1</title><rect width="526.66" height="148.59"/><text class="cls-1" transform="translate(112.29 120.13) scale(0.66 1)">FORESEED</text><path d="M138.08,459.62H25.82V347.38H138.08V459.62ZM74,453.8v-1.41c0-7.56,0-15.13,0-22.69a1.6,1.6,0,0,1,.91-1.63q17.42-10.12,34.81-20.29a1.62,1.62,0,0,0,1-1.61c0-7.23,0-14.47,0-21.7,0-.34,0-0.68-0.07-1.15l-12.32,7.2L54.14,416.3a1.35,1.35,0,0,0-1,1.27c0,7.45,0,14.91,0,22.36a0.93,0.93,0,0,0,.28.69c3.92,2.53,7.86,5,11.8,7.56Zm36.6-100.56-0.75.41q-28,16.33-56,32.64a1.28,1.28,0,0,0-.72,1.29q0,11,0,22c0,0.28,0,.56.05,1,0.41-.21.73-0.35,1-0.53q27.8-16.23,55.6-32.45a1.45,1.45,0,0,0,.82-1.47c0-7.27,0-14.54,0-21.81C110.68,354,110.66,353.69,110.64,353.24Z" transform="translate(-25.58 -328.97)"/><path class="cls-2" d="M74,453.8l-8.76-5.63c-3.93-2.52-7.87-5-11.8-7.56a0.93,0.93,0,0,1-.28-0.69c0-7.45,0-14.91,0-22.36a1.35,1.35,0,0,1,1-1.27L98.3,390.52l12.32-7.2c0,0.47.07,0.81,0.07,1.15,0,7.23,0,14.47,0,21.7a1.62,1.62,0,0,1-1,1.61q-17.41,10.13-34.81,20.29A1.6,1.6,0,0,0,74,429.7c0,7.56,0,15.13,0,22.69v1.41Z" transform="translate(-25.58 -328.97)"/><path class="cls-2" d="M110.64,353.24c0,0.45,0,.76,0,1.08,0,7.27,0,14.54,0,21.81a1.45,1.45,0,0,1-.82,1.47Q82.07,393.8,54.28,410c-0.3.18-.62,0.32-1,0.53,0-.4-0.05-0.68-0.05-1q0-11,0-22a1.28,1.28,0,0,1,.72-1.29q28-16.3,56-32.64Z" transform="translate(-25.58 -328.97)"/></svg>