<svg xmlns="http://www.w3.org/2000/svg" viewBox="20 174.275 502.537097748116 226.4499483254032"><rect height="100%" width="100%" x="20" y="174.275" fill="rgba(0, 0, 0, 1)"/> <svg xmlns="http://www.w3.org/2000/svg" xmlns:xlink="http://www.w3.org/1999/xlink" version="1.1" id="Livello_1" x="90" y="244.275" viewBox="851 832.7999877929688 163 285.20001220703125" xml:space="preserve" height="86.44994832540321" width="49.40862587526162" preserveAspectRatio="xMinYMin" enable-background="new 0 0 2000 2000" style="overflow: visible;"><polygon class="st0" points="851,1025.1 851,1079.9 851,1081.1 851.9,1080.5 910.1,1118 910.1,1046.6 1014,985.9 1014,918.1    851,1013.3  " style="fill: #ffffff; fill-opacity: 1;"></polygon><polygon class="st0" points="851,927.9 851,995.8 1014,900.6 1014,832.8  " style="fill: #ffffff; fill-opacity: 1;"></polygon></svg> <svg xmlns="http://www.w3.org/2000/svg" x="170.51710873444412" y="276.0072420668051" viewBox="3.0999999046325684 13.949999809265137 282.0199890136719 33.709999084472656" height="33.709999084472656" width="282.0199890136719" style="overflow: visible;"><g fill="#ffffff" fill-opacity="1" style=""><path d="M3.10 15.84L22.50 15.84L22.50 20.93L9.40 20.93L9.40 28.98L19.44 28.98L19.44 33.98L9.40 33.98L9.40 47.25L3.10 47.25L3.10 15.84ZM37.57 47.66Q33.97 47.66 31.09 46.06Q28.21 44.46 26.57 41.53Q24.93 38.61 24.93 34.78L24.93 34.78Q24.93 30.96 26.62 28.04Q28.30 25.11 31.23 23.51Q34.16 21.92 37.75 21.92L37.75 21.92Q41.35 21.92 44.28 23.51Q47.20 25.11 48.89 28.04Q50.58 30.96 50.58 34.78L50.58 34.78Q50.58 38.61 48.85 41.53Q47.11 44.46 44.17 46.06Q41.22 47.66 37.57 47.66L37.57 47.66ZM37.57 42.16Q39.28 42.16 40.79 41.33Q42.30 40.50 43.20 38.84Q44.10 37.17 44.10 34.78L44.10 34.78Q44.10 31.23 42.23 29.32Q40.36 27.41 37.66 27.41L37.66 27.41Q34.96 27.41 33.14 29.32Q31.32 31.23 31.32 34.78L31.32 34.78Q31.32 38.34 33.10 40.25Q34.88 42.16 37.57 42.16L37.57 42.16ZM61.06 26.19Q62.28 24.21 64.24 23.09Q66.19 21.96 68.72 21.96L68.72 21.96L68.72 28.57L67.05 28.57Q64.08 28.57 62.57 29.97Q61.06 31.37 61.06 34.83L61.06 34.83L61.06 47.25L54.76 47.25L54.76 22.32L61.06 22.32L61.06 26.19ZM95.67 34.25Q95.67 35.59 95.49 36.67L95.49 36.67L77.27 36.67Q77.49 39.38 79.16 40.91Q80.82 42.44 83.25 42.44L83.25 42.44Q86.76 42.44 88.25 39.42L88.25 39.42L95.04 39.42Q93.96 43.02 90.90 45.34Q87.84 47.66 83.39 47.66L83.39 47.66Q79.78 47.66 76.93 46.06Q74.07 44.46 72.47 41.53Q70.88 38.61 70.88 34.78L70.88 34.78Q70.88 30.91 72.45 27.99Q74.03 25.07 76.86 23.49Q79.69 21.92 83.39 21.92L83.39 21.92Q86.94 21.92 89.75 23.45Q92.56 24.98 94.12 27.79Q95.67 30.60 95.67 34.25L95.67 34.25ZM77.31 32.45L89.14 32.45Q89.10 30.02 87.39 28.55Q85.68 27.09 83.20 27.09L83.20 27.09Q80.86 27.09 79.27 28.51Q77.67 29.93 77.31 32.45L77.31 32.45ZM109.35 47.66Q106.29 47.66 103.86 46.55Q101.43 45.45 100.01 43.56Q98.59 41.67 98.46 39.38L98.46 39.38L104.80 39.38Q104.98 40.81 106.22 41.76Q107.46 42.70 109.30 42.70L109.30 42.70Q111.10 42.70 112.12 41.98Q113.13 41.27 113.13 40.14L113.13 40.14Q113.13 38.92 111.89 38.32Q110.66 37.71 107.95 36.99L107.95 36.99Q105.16 36.31 103.39 35.59Q101.61 34.88 100.33 33.39Q99.05 31.91 99.05 29.39L99.05 29.39Q99.05 27.32 100.24 25.61Q101.43 23.89 103.66 22.91Q105.88 21.92 108.90 21.92L108.90 21.92Q113.35 21.92 116.01 24.14Q118.66 26.37 118.94 30.15L118.94 30.15L112.91 30.15Q112.77 28.66 111.67 27.79Q110.56 26.91 108.72 26.91L108.72 26.91Q107.01 26.91 106.09 27.54Q105.16 28.17 105.16 29.30L105.16 29.30Q105.16 30.55 106.42 31.21Q107.69 31.86 110.34 32.53L110.34 32.53Q113.04 33.21 114.80 33.93Q116.55 34.65 117.83 36.16Q119.11 37.66 119.16 40.14L119.16 40.14Q119.16 42.30 117.97 44.01Q116.78 45.72 114.55 46.69Q112.32 47.66 109.35 47.66L109.35 47.66ZM147.06 34.25Q147.06 35.59 146.88 36.67L146.88 36.67L128.65 36.67Q128.88 39.38 130.54 40.91Q132.21 42.44 134.64 42.44L134.64 42.44Q138.15 42.44 139.63 39.42L139.63 39.42L146.43 39.42Q145.35 43.02 142.29 45.34Q139.23 47.66 134.77 47.66L134.77 47.66Q131.17 47.66 128.32 46.06Q125.46 44.46 123.86 41.53Q122.26 38.61 122.26 34.78L122.26 34.78Q122.26 30.91 123.84 27.99Q125.41 25.07 128.25 23.49Q131.08 21.92 134.77 21.92L134.77 21.92Q138.33 21.92 141.14 23.45Q143.95 24.98 145.51 27.79Q147.06 30.60 147.06 34.25L147.06 34.25ZM128.70 32.45L140.53 32.45Q140.49 30.02 138.78 28.55Q137.07 27.09 134.59 27.09L134.59 27.09Q132.25 27.09 130.66 28.51Q129.06 29.93 128.70 32.45L128.70 32.45ZM174.38 34.25Q174.38 35.59 174.19 36.67L174.19 36.67L155.97 36.67Q156.19 39.38 157.86 40.91Q159.53 42.44 161.95 42.44L161.95 42.44Q165.47 42.44 166.95 39.42L166.95 39.42L173.75 39.42Q172.66 43.02 169.60 45.34Q166.54 47.66 162.09 47.66L162.09 47.66Q158.49 47.66 155.63 46.06Q152.78 44.46 151.18 41.53Q149.58 38.61 149.58 34.78L149.58 34.78Q149.58 30.91 151.16 27.99Q152.73 25.07 155.56 23.49Q158.40 21.92 162.09 21.92L162.09 21.92Q165.65 21.92 168.46 23.45Q171.27 24.98 172.82 27.79Q174.38 30.60 174.38 34.25L174.38 34.25ZM156.01 32.45L167.85 32.45Q167.81 30.02 166.09 28.55Q164.38 27.09 161.91 27.09L161.91 27.09Q159.57 27.09 157.97 28.51Q156.38 29.93 156.01 32.45L156.01 32.45ZM204.57 47.25L197.33 47.25L190.53 36.67L184.37 47.25L177.26 47.25L187.16 31.41L177.12 15.84L184.37 15.84L191.16 26.37L197.28 15.84L204.39 15.84L194.54 31.63L204.57 47.25ZM215.24 15.84L215.24 42.26L225.59 42.26L225.59 47.25L208.94 47.25L208.94 15.84L215.24 15.84ZM227.52 34.70Q227.52 30.91 229.03 27.99Q230.54 25.07 233.12 23.49Q235.71 21.92 238.91 21.92L238.91 21.92Q241.70 21.92 243.79 23.04Q245.88 24.16 247.14 25.88L247.14 25.88L247.14 22.32L253.49 22.32L253.49 47.25L247.14 47.25L247.14 43.60Q245.93 45.36 243.79 46.51Q241.65 47.66 238.86 47.66L238.86 47.66Q235.71 47.66 233.12 46.03Q230.54 44.41 229.03 41.47Q227.52 38.52 227.52 34.70L227.52 34.70ZM247.14 34.78Q247.14 32.49 246.24 30.85Q245.34 29.21 243.81 28.33Q242.28 27.45 240.53 27.45L240.53 27.45Q238.77 27.45 237.29 28.30Q235.80 29.16 234.88 30.80Q233.96 32.45 233.96 34.70L233.96 34.70Q233.96 36.95 234.88 38.63Q235.80 40.32 237.31 41.22Q238.82 42.12 240.53 42.12L240.53 42.12Q242.28 42.12 243.81 41.24Q245.34 40.37 246.24 38.72Q247.14 37.08 247.14 34.78L247.14 34.78ZM265.50 25.96Q266.72 24.16 268.85 23.04Q270.99 21.92 273.74 21.92L273.74 21.92Q276.93 21.92 279.52 23.49Q282.11 25.07 283.61 27.97Q285.12 30.87 285.12 34.70L285.12 34.70Q285.12 38.52 283.61 41.47Q282.11 44.41 279.52 46.03Q276.93 47.66 273.74 47.66L273.74 47.66Q270.95 47.66 268.85 46.55Q266.76 45.45 265.50 43.70L265.50 43.70L265.50 47.25L259.20 47.25L259.20 13.95L265.50 13.95L265.50 25.96ZM278.69 34.70Q278.69 32.45 277.76 30.80Q276.84 29.16 275.33 28.30Q273.83 27.45 272.07 27.45L272.07 27.45Q270.36 27.45 268.85 28.33Q267.35 29.21 266.42 30.87Q265.50 32.53 265.50 34.78L265.50 34.78Q265.50 37.03 266.42 38.70Q267.35 40.37 268.85 41.24Q270.36 42.12 272.07 42.12L272.07 42.12Q273.83 42.12 275.33 41.22Q276.84 40.32 277.76 38.66Q278.69 36.99 278.69 34.70L278.69 34.70Z" transform="translate(0, 0)"></path></g></svg></svg>